<mxfile host="Electron" modified="2023-10-05T13:41:19.234Z" agent="Mozilla/5.0 (Macintosh; Intel Mac OS X 10_15_7) AppleWebKit/537.36 (KHTML, like Gecko) draw.io/21.6.8 Chrome/114.0.5735.289 Electron/25.5.0 Safari/537.36" etag="c9Kmo2aznmAxCoSregld" version="21.6.8" type="device">
  <diagram id="GUxEJdWFkQ5Y1Z3yI3_n" name="dex_agg_chain">
    <mxGraphModel dx="483" dy="321" grid="1" gridSize="10" guides="1" tooltips="1" connect="1" arrows="1" fold="1" page="1" pageScale="1" pageWidth="100" pageHeight="150" math="1" shadow="0">
      <root>
        <mxCell id="0" />
        <mxCell id="1" parent="0" />
        <mxCell id="bZvmhqit_LieYHjqC5bX-45" style="edgeStyle=orthogonalEdgeStyle;rounded=0;orthogonalLoop=1;jettySize=auto;html=1;exitX=0.5;exitY=0;exitDx=0;exitDy=0;entryX=0.5;entryY=0;entryDx=0;entryDy=0;entryPerimeter=0;" parent="1" source="nBqxjyZSAqmiugvEhESZ-1" target="bZvmhqit_LieYHjqC5bX-1" edge="1">
          <mxGeometry relative="1" as="geometry" />
        </mxCell>
        <mxCell id="bZvmhqit_LieYHjqC5bX-63" style="edgeStyle=orthogonalEdgeStyle;rounded=0;orthogonalLoop=1;jettySize=auto;html=1;exitX=1;exitY=0.75;exitDx=0;exitDy=0;entryX=0;entryY=0;entryDx=0;entryDy=7.5;entryPerimeter=0;strokeColor=#000000;" parent="1" source="nBqxjyZSAqmiugvEhESZ-1" target="6Lm5Y_GZ7VoUYkAefaGX-1" edge="1">
          <mxGeometry relative="1" as="geometry" />
        </mxCell>
        <mxCell id="nBqxjyZSAqmiugvEhESZ-1" value="&lt;font style=&quot;font-size: 10px;&quot;&gt;&lt;br&gt;&lt;font style=&quot;font-size: 10px;&quot;&gt;&lt;br&gt;User&lt;/font&gt;&lt;/font&gt;" style="shape=actor;whiteSpace=wrap;html=1;fontSize=10;fontFamily=Times New Roman;verticalAlign=middle;" parent="1" vertex="1">
          <mxGeometry x="-90" y="48.75" width="40" height="51.25" as="geometry" />
        </mxCell>
        <mxCell id="bZvmhqit_LieYHjqC5bX-64" style="edgeStyle=orthogonalEdgeStyle;rounded=0;orthogonalLoop=1;jettySize=auto;html=1;exitX=0.5;exitY=1;exitDx=0;exitDy=0;exitPerimeter=0;entryX=0.5;entryY=1;entryDx=0;entryDy=0;strokeColor=#FF0000;" parent="1" source="6Lm5Y_GZ7VoUYkAefaGX-1" target="nBqxjyZSAqmiugvEhESZ-1" edge="1">
          <mxGeometry relative="1" as="geometry" />
        </mxCell>
        <mxCell id="6Lm5Y_GZ7VoUYkAefaGX-1" value="Yearn&lt;br&gt;Pool" style="shape=cylinder3;whiteSpace=wrap;html=1;boundedLbl=1;backgroundOutline=1;size=7.5;strokeWidth=2;fontFamily=Times New Roman;fontSize=10;fontStyle=0" parent="1" vertex="1">
          <mxGeometry x="30" y="80.37" width="60" height="40" as="geometry" />
        </mxCell>
        <mxCell id="bZvmhqit_LieYHjqC5bX-62" style="edgeStyle=orthogonalEdgeStyle;rounded=0;orthogonalLoop=1;jettySize=auto;html=1;exitX=0;exitY=1;exitDx=0;exitDy=-7.5;exitPerimeter=0;entryX=0.75;entryY=0.25;entryDx=0;entryDy=0;entryPerimeter=0;strokeColor=#FF0000;" parent="1" source="bZvmhqit_LieYHjqC5bX-1" target="nBqxjyZSAqmiugvEhESZ-1" edge="1">
          <mxGeometry relative="1" as="geometry" />
        </mxCell>
        <mxCell id="bZvmhqit_LieYHjqC5bX-1" value="Curve&lt;br&gt;Pool" style="shape=cylinder3;whiteSpace=wrap;html=1;boundedLbl=1;backgroundOutline=1;size=7.5;strokeWidth=2;fontFamily=Times New Roman;fontStyle=0;fontSize=10;" parent="1" vertex="1">
          <mxGeometry x="30" y="30" width="60" height="39" as="geometry" />
        </mxCell>
        <mxCell id="2SqFd5uKFIkBH42q-k37-2" style="edgeStyle=orthogonalEdgeStyle;rounded=0;orthogonalLoop=1;jettySize=auto;html=1;exitX=1.025;exitY=0.7;exitDx=0;exitDy=0;entryX=0.5;entryY=0;entryDx=0;entryDy=0;dashed=1;endArrow=none;endFill=0;exitPerimeter=0;" parent="1" source="HrbEzT73BOLrerBVjsO3-2" edge="1">
          <mxGeometry relative="1" as="geometry">
            <mxPoint x="-10" y="40" as="sourcePoint" />
            <mxPoint x="-10" y="54.379999999999995" as="targetPoint" />
          </mxGeometry>
        </mxCell>
        <mxCell id="2SqFd5uKFIkBH42q-k37-8" style="edgeStyle=orthogonalEdgeStyle;rounded=0;orthogonalLoop=1;jettySize=auto;html=1;exitX=0.5;exitY=1;exitDx=0;exitDy=0;entryX=0.5;entryY=0;entryDx=0;entryDy=0;endArrow=none;endFill=0;dashed=1;" parent="1" target="HrbEzT73BOLrerBVjsO3-4" edge="1">
          <mxGeometry relative="1" as="geometry">
            <mxPoint x="-10" y="94.38" as="sourcePoint" />
            <mxPoint x="-10" y="110" as="targetPoint" />
          </mxGeometry>
        </mxCell>
        <mxCell id="vJIfzhqlRzns5ZVLxd_G-1" value="$$\mathcal{S}_{DA}^{(1)}$$" style="text;html=1;strokeColor=none;fillColor=none;align=center;verticalAlign=middle;whiteSpace=wrap;rounded=0;fontStyle=0;fontSize=10;" parent="1" vertex="1">
          <mxGeometry x="-66" y="34.5" width="50" height="30" as="geometry" />
        </mxCell>
        <mxCell id="ZbXf5vwqpne9N7D1yb6T-1" value="$$\mathcal{S}_{DA}^{(2)}$$" style="text;html=1;strokeColor=none;fillColor=none;align=center;verticalAlign=middle;whiteSpace=wrap;rounded=0;fontSize=10;" parent="1" vertex="1">
          <mxGeometry x="-66" y="59.379999999999995" width="50" height="30" as="geometry" />
        </mxCell>
        <mxCell id="2SqFd5uKFIkBH42q-k37-1" value="$$\mathcal{S}_{DA}^{(3)}$$" style="text;html=1;strokeColor=none;fillColor=none;align=center;verticalAlign=middle;whiteSpace=wrap;rounded=0;fontSize=10;" parent="1" vertex="1">
          <mxGeometry x="-66" y="110" width="50" height="30" as="geometry" />
        </mxCell>
        <mxCell id="HrbEzT73BOLrerBVjsO3-1" value="&lt;b style=&quot;font-size: 10px;&quot;&gt;USDT&lt;/b&gt;" style="ellipse;whiteSpace=wrap;html=1;aspect=fixed;labelBackgroundColor=none;labelBorderColor=none;fillColor=#eeeeee;strokeColor=#36393d;fontSize=10;fontFamily=Times New Roman;" parent="1" vertex="1">
          <mxGeometry x="-10" width="40" height="40" as="geometry" />
        </mxCell>
        <mxCell id="HrbEzT73BOLrerBVjsO3-2" value="&lt;b style=&quot;font-size: 10px;&quot;&gt;EURS&lt;/b&gt;" style="ellipse;whiteSpace=wrap;html=1;aspect=fixed;labelBackgroundColor=none;labelBorderColor=none;fillColor=#eeeeee;strokeColor=#36393d;fontSize=10;fontFamily=Times New Roman;" parent="1" vertex="1">
          <mxGeometry x="-50" width="40" height="40" as="geometry" />
        </mxCell>
        <mxCell id="HrbEzT73BOLrerBVjsO3-3" value="&lt;p style=&quot;line-height: 50%;&quot;&gt;&lt;b style=&quot;font-size: 7px;&quot;&gt;crvEURS&lt;br&gt;USDT&lt;/b&gt;&lt;/p&gt;" style="ellipse;whiteSpace=wrap;html=1;aspect=fixed;labelBackgroundColor=none;labelBorderColor=none;fillColor=#eeeeee;strokeColor=#36393d;fontSize=10;fontFamily=Times New Roman;" parent="1" vertex="1">
          <mxGeometry x="-30" y="55" width="40" height="40" as="geometry" />
        </mxCell>
        <mxCell id="HrbEzT73BOLrerBVjsO3-4" value="&lt;p style=&quot;line-height: 40%;&quot;&gt;&lt;span style=&quot;font-size: 6px;&quot;&gt;&lt;b&gt;yvCurve-EURS&lt;/b&gt;&lt;/span&gt;&lt;b style=&quot;font-size: 6px; background-color: initial;&quot;&gt;USDT&lt;/b&gt;&lt;/p&gt;" style="ellipse;whiteSpace=wrap;html=1;aspect=fixed;labelBackgroundColor=none;labelBorderColor=none;fillColor=#eeeeee;strokeColor=#36393d;fontSize=10;fontFamily=Times New Roman;align=center;" parent="1" vertex="1">
          <mxGeometry x="-27.5" y="115" width="35" height="35" as="geometry" />
        </mxCell>
        <mxCell id="MdbKMxWw5slok0ynywjC-1" value="1" style="ellipse;whiteSpace=wrap;html=1;aspect=fixed;fontSize=7;labelBackgroundColor=none;fontColor=#FFFFFF;fillColor=#000000;" vertex="1" parent="1">
          <mxGeometry x="42" y="16" width="8" height="8" as="geometry" />
        </mxCell>
        <mxCell id="MdbKMxWw5slok0ynywjC-2" value="2" style="ellipse;whiteSpace=wrap;html=1;aspect=fixed;fontSize=7;labelBackgroundColor=none;fontColor=#FFFFFF;fillColor=#000000;" vertex="1" parent="1">
          <mxGeometry x="20" y="45.50000000000001" width="8" height="8" as="geometry" />
        </mxCell>
        <mxCell id="MdbKMxWw5slok0ynywjC-4" value="4" style="ellipse;whiteSpace=wrap;html=1;aspect=fixed;fontSize=7;labelBackgroundColor=none;fontColor=#FFFFFF;fillColor=#000000;" vertex="1" parent="1">
          <mxGeometry x="42" y="128.5" width="8" height="8" as="geometry" />
        </mxCell>
        <mxCell id="MdbKMxWw5slok0ynywjC-6" value="3" style="ellipse;whiteSpace=wrap;html=1;aspect=fixed;fontSize=7;labelBackgroundColor=none;fontColor=#FFFFFF;fillColor=#000000;" vertex="1" parent="1">
          <mxGeometry x="20" y="96.37" width="8" height="8" as="geometry" />
        </mxCell>
      </root>
    </mxGraphModel>
  </diagram>
</mxfile>
